Coordinates
version=1
nRows=21
nColumns=22
inDegrees=yes

Units are S.I. units (second, meters, Newtons, ...)
If the header above contains a line with 'inDegrees', this indicates whether rotational values are in degrees (yes) or radians (no).

endheader
time	pelvis_tilt	pelvis_list	pelvis_rotation	pelvis_tx	pelvis_ty	pelvis_tz	hip_flexion_r	hip_adduction_r	hip_rotation_r	knee_angle_r	ankle_angle_r	subtalar_angle_r	hip_flexion_l	hip_adduction_l	hip_rotation_l	knee_angle_l	ankle_angle_l	subtalar_angle_l	lumbar_extension	lumbar_bending	lumbar_rotation
      3.03000000	      5.01572596	    -14.98596462	      1.00069291	      0.07694666	      0.84196347	     -0.10786423	     -3.12947450	      3.09987626	     11.31088760	    -58.91176985	    -15.66583774	     28.28680295	     35.63314752	    -23.29389253	    -18.29007208	    -46.94577352	     10.34347905	    -11.19310178	     -6.19585030	      4.47126512	     38.72281570
      3.04000000	      5.54096681	    -14.99703097	      3.74898086	      0.08692441	      0.84403217	     -0.11571688	     -1.31328404	      2.98883801	     10.57137035	    -61.06498186	    -15.23971579	     26.19791179	     35.19232514	    -21.83291668	    -16.90379969	    -46.80096861	     10.95272050	    -11.03644066	     -6.17381612	      4.65566977	     38.47362029
      3.05000000	      6.08515742	    -14.93785162	      6.64916502	      0.09632616	      0.84619239	     -0.12379268	      0.42016327	      2.75320683	      9.87329419	    -62.98225615	    -14.35460056	     23.71555258	     34.68959358	    -20.30664879	    -15.48341623	    -46.54151979	     11.45944260	    -10.81486630	     -6.15306697	      4.80663039	     38.09264702
      3.06000000	      6.68754757	    -14.81261724	      9.70552215	      0.10512447	      0.84845764	     -0.13203012	      2.02811415	      2.37585414	      9.15224488	    -64.69828237	    -13.15494386	     20.93218992	     34.10033141	    -18.77277210	    -14.08545258	    -46.21163679	     11.78371861	    -10.55883807	     -6.18582657	      4.92663018	     37.60040124
      3.07000000	      7.25357599	    -14.60558090	     12.87002112	      0.11327623	      0.85070252	     -0.14037279	      3.61172096	      1.82581620	      8.43403976	    -66.24720348	    -11.97380262	     18.04480658	     33.47820307	    -17.20371068	    -12.72869510	    -45.76586529	     12.05350294	    -10.27267659	     -6.18576273	      4.98741674	     37.01235761
      3.08000000	      7.82029276	    -14.33605878	     16.13907579	      0.12074727	      0.85296755	     -0.14874654	      5.11755374	      1.13173752	      7.72001923	    -67.63343828	    -10.94634458	     15.20265329	     32.80313228	    -15.66120998	    -11.46930120	    -45.23992002	     12.18707683	     -9.98820912	     -6.20741811	      5.01107910	     36.35339779
      3.09000000	      8.36610436	    -14.03063951	     19.49185197	      0.12753942	      0.85520093	     -0.15706221	      6.55865089	      0.33395992	      7.03914034	    -68.86426031	    -10.18872315	     12.55839400	     32.10566702	    -14.18558880	    -10.34473214	    -44.64303482	     12.22470641	     -9.72284006	     -6.22724788	      5.01755369	     35.65366317
      3.10000000	      8.87725759	    -13.71197745	     22.90747563	      0.13366541	      0.85740320	     -0.16523235	      7.93601203	     -0.51355308	      6.44366113	    -69.92873277	     -9.77234005	     10.19699706	     31.39932728	    -12.79952297	     -9.37309175	    -43.96590040	     12.18506589	     -9.49001602	     -6.22840297	      5.02062657	     34.91281056
      3.11000000	      9.36260977	    -13.41185840	     26.37850399	      0.13915392	      0.85956708	     -0.17317805	      9.23680968	     -1.34841836	      5.95607612	    -70.81542107	     -9.68618623	      8.16925606	     30.70582745	    -11.54005745	     -8.56648476	    -43.23605544	     12.07552833	     -9.30174518	     -6.20678070	      5.04894105	     34.14416692
      3.12000000	      9.85217733	    -13.16352047	     29.91184834	      0.14403537	      0.86169966	     -0.18085815	     10.43177001	     -2.10511398	      5.57532819	    -71.50562298	     -9.87410425	      6.47291143	     30.03853759	    -10.44099899	     -7.89642800	    -42.48544547	     11.90637036	     -9.16611248	     -6.16512770	      5.14633294	     33.35854518
      3.13000000	     10.35434082	    -12.97704122	     33.50466558	      0.14835134	      0.86381073	     -0.18823295	     11.51134579	     -2.74359676	      5.32012219	    -71.98461986	    -10.26492422	      5.13662936	     29.40668179	     -9.50431629	     -7.34434236	    -41.72282406	     11.69104467	     -9.07458953	     -6.09370370	      5.32254711	     32.53466002
      3.14000000	     10.89520145	    -12.85171391	     37.16459343	      0.15214041	      0.86589974	     -0.19530488	     12.44712572	     -3.25016958	      5.16952974	    -72.24660733	    -10.72476109	      4.16773342	     28.80747531	     -8.72672508	     -6.86487412	    -40.96868998	     11.44843918	     -9.01450627	     -5.99416572	      5.59036334	     31.68411907
      3.15000000	     11.48687275	    -12.76528884	     40.88991428	      0.15541776	      0.86795718	     -0.20204958	     13.22729659	     -3.62817946	      5.12871378	    -72.31143697	    -11.14844071	      3.57471898	     28.23611385	     -8.08384799	     -6.41348234	    -40.24082103	     11.19487379	     -8.97055608	     -5.87772337	      5.93789181	     30.78219730
      3.16000000	     12.12305519	    -12.69602625	     44.67743494	      0.15821675	      0.86996774	     -0.20849920	     13.84218570	     -3.91245938	      5.17875749	    -72.18750036	    -11.41620099	      3.38658738	     27.68085885	     -7.53978724	     -5.95011782	    -39.52037437	     10.94959101	     -8.93287872	     -5.73217129	      6.34645019	     29.84357498
      3.17000000	     12.79895340	    -12.61258996	     48.51672989	      0.16056261	      0.87190952	     -0.21463992	     14.29481339	     -4.13580809	      5.30691045	    -71.91479323	    -11.51667862	      3.42670074	     27.13776684	     -7.07270486	     -5.47909788	    -38.82677814	     10.71747806	     -8.88969707	     -5.56728597	      6.79097319	     28.83452208
      3.18000000	     13.55195014	    -12.51210003	     52.40135654	      0.16248628	      0.87383581	     -0.22046539	     14.55226828	     -4.25511080	      5.51504831	    -71.48450107	    -11.42501493	      3.71021487	     26.58305009	     -6.70984856	     -4.96573060	    -38.14663005	     10.47858215	     -8.80828389	     -5.40589034	      7.30430206	     27.81241196
      3.19000000	     14.31162647	    -12.36430951	     56.30253736	      0.16401730	      0.87565207	     -0.22596777	     14.67857313	     -4.35815193	      5.79751380	    -70.96947753	    -11.16478988	      4.15325108	     26.03397278	     -6.38372033	     -4.44919697	    -37.46776310	     10.26107294	     -8.69656046	     -5.21536503	      7.81329079	     26.74467576
      3.20000000	     15.07024910	    -12.16508575	     60.20261243	      0.16520211	      0.87734796	     -0.23115521	     14.68511053	     -4.44870613	      6.14676736	    -70.39540319	    -10.78665343	      4.61520728	     25.49168206	     -6.09629553	     -3.97307664	    -36.79746109	     10.05200629	     -8.54259659	     -4.99350293	      8.31166196	     25.64684181
      3.21000000	     15.80737923	    -11.91926295	     64.08483561	      0.16606743	      0.87890085	     -0.23601573	     14.60898830	     -4.54414228	      6.54222886	    -69.79416229	    -10.38469430	      4.91168081	     24.95953916	     -5.83531892	     -3.56823997	    -36.11605920	      9.86341279	     -8.37216971	     -4.73219537	      8.78522447	     24.52751985
      3.22000000	     16.50348334	    -11.63106167	     67.93686182	      0.16664125	      0.88027240	     -0.24054520	     14.48001802	     -4.66258201	      6.96747443	    -69.19878400	    -10.02473879	      4.99897847	     24.44875461	     -5.58679479	     -3.28057632	    -35.43079948	      9.70780937	     -8.21215273	     -4.42447737	      9.21769673	     23.37707883
      3.23000000	     17.18455954	    -11.30723926	     71.74679690	      0.16696682	      0.88150063	     -0.24476813	     14.29550750	     -4.77219026	      7.40515999	    -68.60802273	     -9.75553188	      4.90830550	     23.93841170	     -5.38616245	     -3.15577585	    -34.72177613	      9.57442785	     -8.03482737	     -4.07957921	      9.63850884	     22.23232615
